<?xml version="1.0" encoding="utf-8"?>
<!-- Generator: Adobe Illustrator 21.0.2, SVG Export Plug-In . SVG Version: 6.00 Build 0)  -->
<svg version="1.1" id="Layer_1" xmlns="http://www.w3.org/2000/svg" xmlns:xlink="http://www.w3.org/1999/xlink" x="0px" y="0px"
	 viewBox="0 0 216 216" style="enable-background:new 0 0 216 216;" xml:space="preserve">
<style type="text/css">
	.st0{fill:#6E297C;}
	.st1{fill:#27AAE1;}
	.st2{fill:#FFFFFF;}
	.st3{fill:#231F20;}
</style>
<path class="st0" d="M43.2,68.8c0,0-72.5,46.6,3.1,95.4s129,0,129,0s64.9-38.9,0-88.5S43.2,68.8,43.2,68.8z"/>
<ellipse class="st1" cx="109.3" cy="129.9" rx="28.6" ry="14.5"/>
<path class="st1" d="M142.4,60.9c0,0-9.2-50,36.6-43.9c0,0,6,2.9-1.2,3.1c-7.2,0.2-34.2-7.1-32.9,40.8
	C146.4,108.8,142.4,60.9,142.4,60.9z"/>
<path class="st1" d="M77,60.9c0,0,9.2-50-36.6-43.9c0,0-6,2.9,1.2,3.1s34.2-7.1,32.9,40.8S77,60.9,77,60.9z"/>
<ellipse class="st2" cx="76.7" cy="97.7" rx="5.4" ry="11"/>
<ellipse class="st2" cx="141.7" cy="97.7" rx="5.4" ry="11"/>
<ellipse class="st3" cx="141.7" cy="102" rx="4" ry="6.6"/>
<ellipse class="st3" cx="76.7" cy="102" rx="4" ry="6.6"/>
</svg>
