<?xml version="1.0" encoding="utf-8"?>
<!-- Generator: Adobe Illustrator 21.0.2, SVG Export Plug-In . SVG Version: 6.00 Build 0)  -->
<svg version="1.1" id="Layer_1" xmlns="http://www.w3.org/2000/svg" xmlns:xlink="http://www.w3.org/1999/xlink" x="0px" y="0px"
	 viewBox="0 0 216 216" style="enable-background:new 0 0 216 216;" xml:space="preserve">
<style type="text/css">
	.st0{fill:#006838;}
	.st1{fill:#FFFFFF;stroke:#231F20;stroke-width:1.0823;stroke-miterlimit:10;}
	.st2{fill:none;stroke:#231F20;stroke-width:2.1646;stroke-linecap:round;stroke-linejoin:round;stroke-miterlimit:10;}
	.st3{fill:none;stroke:#231F20;stroke-width:1.0823;stroke-miterlimit:10;}
	.st4{fill:#FFFFFF;stroke:#231F20;stroke-width:1.1812;stroke-miterlimit:10;}
	.st5{fill:#231F20;stroke:#231F20;stroke-width:1.1812;stroke-miterlimit:10;}
</style>
<circle class="st0" cx="107.1" cy="107.3" r="95.5"/>
<path class="st1" d="M48,80.2l42.9,4.4c0,0-4.2,25.2-28.1,24S48,80.2,48,80.2z"/>
<path class="st1" d="M164.9,87.9l-43-2.7c0,0,0,25.5,23.8,28.3C169.4,116.3,164.9,87.9,164.9,87.9z"/>
<path class="st2" d="M38.6,67.2c0,0,7.5-31.6,32.4,0c0,0,4.3,5.1,9.3,6.7s18.4,0,18.4,0"/>
<line class="st2" x1="127.8" y1="76.8" x2="169.5" y2="76.8"/>
<path class="st3" d="M119.3,88.3"/>
<path class="st4" d="M81.5,140.5c0,0,45.3-15.5,50.1-2.7C136.4,150.6,81.5,140.5,81.5,140.5z"/>
<circle class="st5" cx="57.7" cy="97.1" r="9.3"/>
<circle class="st5" cx="137.1" cy="99.5" r="9.3"/>
</svg>
