<?xml version="1.0" encoding="utf-8"?>
<!-- Generator: Adobe Illustrator 21.0.2, SVG Export Plug-In . SVG Version: 6.00 Build 0)  -->
<svg version="1.1" id="Layer_1" xmlns="http://www.w3.org/2000/svg" xmlns:xlink="http://www.w3.org/1999/xlink" x="0px" y="0px"
	 viewBox="0 0 497 216" style="enable-background:new 0 0 497 216;" xml:space="preserve">
<style type="text/css">
	.st0{fill:none;stroke:#D7642A;stroke-width:0.25;stroke-linecap:round;stroke-linejoin:round;}
	.st1{fill:none;stroke:#8D6025;stroke-width:0.5;stroke-linecap:round;stroke-linejoin:round;}
	.st2{fill:#8D6025;}
	.st3{fill:none;stroke:#D7642A;stroke-width:0.5;}
	.st4{fill:#D7642A;}
	.st5{fill:#BE1E2D;}
	.st6{opacity:0.1091;fill:#7AC143;}
	.st7{fill:#4D5EAB;}
	.st8{fill:#FAAC56;}
	.st9{fill:#FDC689;}
	.st10{fill:#58595B;}
	.st11{fill:none;stroke:#FFFFFF;stroke-miterlimit:10;}
</style>
<g>
	<g>
		<path class="st0" d="M248.3,53c-2.2,1.6-4.6,3.1-7.1,4.4c-9.9,5.1-20.7,8.7-31.8,10.5c-2.9,0.5-5.8,0.8-8.8,1"/>
		<g>
			<g>
				<path class="st1" d="M258.2,45c-1.3,3.1-3.6,5.9-6.4,8.4c-2.8,2.4-6,4.4-9.5,6.2c-10.2,5.3-21.2,8.9-32.5,10.7
					c-7.7,1.3-15.6,1.7-23.5,1.2"/>
				<g>
					<path class="st2" d="M257.5,44.7c0.1-0.3,0.6-0.4,0.9-0.3c0.4,0.1,0.6,0.5,0.4,0.9c-0.1,0.3-0.6,0.5-0.9,0.3
						C257.5,45.4,257.3,45,257.5,44.7z"/>
				</g>
				<g>
					<path class="st2" d="M186.4,70.7c-0.4,0-0.7,0.3-0.8,0.7c0,0.4,0.3,0.8,0.7,0.8c0.4,0,0.8-0.3,0.8-0.7
						C187.1,71.1,186.8,70.7,186.4,70.7z"/>
				</g>
			</g>
		</g>
		<g>
			<g>
				<path class="st3" d="M252,48l0.1,0.5c0.5,2.2,1.7,4.1,3.5,5.3c1.8,1.3,4.1,1.9,6.3,1.8c2.2-0.1,4.1-0.9,4.9-1.7
					c0.8-0.8,0.5-1.5-1.8-1.6c-2-0.1-3.8,0.2-5.4,0.6c-1.6,0.4-3,1-4.3,1.6c-1.2,0.6-2.3,1.2-3,1.6c-0.7,0.4-1.2,0.8-1.2,0.8
					c-2.4,1.8-5.1,3.4-7.8,4.8c-10.4,5.4-21.7,9.1-33.3,11c-3,0.5-6.1,0.9-9.2,1.1c0,0-0.5,0.1-1.4,0.2c-0.9,0.2-2,0.5-3.3,1
					c-1.3,0.5-2.6,1.2-3.9,2.2c-1.3,1-2.4,2.3-3.2,4c-1.9,3.9,1.4,2.6,3.9-0.6c2.6-3.3,4.2-8.5,0.8-12.1l-0.4-0.4"/>
				<g>
					<path class="st4" d="M251.4,46c0,0.9-0.3,2.1-0.9,2.8c0.5-0.1,1-0.3,1.6-0.5c0.6,0.2,1.2,0.4,1.8,0.6
						C253.1,48.1,252.1,46.9,251.4,46z"/>
				</g>
				<g>
					<path class="st4" d="M192,66.3c1,0.6,2.4,1.1,3.5,1.2l-1.7,0.8l-0.9,1.8C192.8,68.9,192.4,67.4,192,66.3z"/>
				</g>
			</g>
		</g>
	</g>
</g>
<g>
	<g>
		<g>
			<g>
				<g>
					<path class="st5" d="M405.1,112.7c0.1-0.2-0.3-0.3-0.3-0.4C404.7,112.7,405.2,112.7,405.1,112.7z"/>
					<path class="st5" d="M404.1,116.9l-0.1-0.1c0,0.3,0.1,0.5,0.1,0.7C404.1,117.3,404.1,117.1,404.1,116.9z"/>
					<path class="st5" d="M402.2,120.3c0.8,0,0.6-1.3,1.2-1.8l0.2,0l-0.3-0.6C402.8,118.7,402.6,119.9,402.2,120.3z"/>
					<path class="st5" d="M399.8,121.3c0.3,0,0,0.5,0.3-0.4c-0.1,0-0.1,0-0.1,0C400,121.1,399.9,121.2,399.8,121.3z"/>
					<path class="st5" d="M400,121C400.2,120.6,399.7,121.1,400,121L400,121z"/>
					<path class="st5" d="M399.1,122.7l0.1-0.6c-0.2,0-0.5,0.4-0.5,0.2C398.5,122.8,398.7,122.8,399.1,122.7z"/>
					<path class="st5" d="M399.3,123.4l0.1-0.3C399.3,123.1,399.2,123.1,399.3,123.4z"/>
					<path class="st5" d="M399.5,122.5l-0.1,0.6c0.1,0,0.3,0.1,0.1-0.3C399.6,123,399.5,122.8,399.5,122.5z"/>
					<path class="st5" d="M399.8,122.2c0.3-0.2,0.6-0.5,0.5,0.1C400.7,121.4,400.2,121.3,399.8,122.2z"/>
					<path class="st5" d="M402.7,120.8l0.4-0.3l0-0.4C403.1,120.4,402.5,120.8,402.7,120.8z"/>
					<path class="st5" d="M397,125.3c0.1,0.1,0.4,0.1,0.6,0.2l0.1-0.4C397.5,125.1,397.2,125.4,397,125.3z"/>
					<path class="st5" d="M397.6,125.4l-0.1,0.6C397.8,125.6,397.8,125.5,397.6,125.4z"/>
					<polygon class="st5" points="399.9,123.9 400,122.8 399.8,124.1 					"/>
					<polygon class="st5" points="395.7,127.1 395.6,126.7 395.7,127.5 					"/>
					<path class="st5" d="M394.9,128.4c-0.1-0.4-0.6,0-0.6-0.3c-0.2,0.4-0.2,0.8-0.2,1.2C394.2,128.9,394.4,128.6,394.9,128.4z"/>
					<path class="st5" d="M394,129.8c0-0.2,0-0.4,0.1-0.6C394,129.4,394,129.6,394,129.8z"/>
					<path class="st5" d="M396.9,126.9c-0.1,0-0.3-0.1-0.6,0.1l0.5,0.1C396.8,127,396.8,126.9,396.9,126.9z"/>
					<path class="st5" d="M396.7,127.1L396.7,127.1c-0.2,0.2-0.3,0.3-0.3,0.4C396.5,127.4,396.5,127.3,396.7,127.1z"/>
					<path class="st5" d="M396.9,126.8L396.9,126.8C396.9,126.9,396.9,126.9,396.9,126.8z"/>
					<path class="st5" d="M398.8,125c0,0.4-0.2,1.2,0.5,0.8C399.2,125.4,398.7,125.7,398.8,125z"/>
					<path class="st5" d="M397.5,126.9l0.4-0.5c-0.1-0.1-0.3-0.1-0.3-0.3L397.5,126.9z"/>
					<polygon class="st5" points="397.4,127.2 397.5,126.9 397.3,127.1 					"/>
					<path class="st5" d="M395,129.2c0,0.3-0.2,0.6-0.4,0.9c0.3-0.2,0.6-0.5,0.8-0.8C395.3,129.2,395.2,128.9,395,129.2z"/>
					<path class="st5" d="M395.9,128.2L395.9,128.2C395.9,128.3,395.9,128.2,395.9,128.2z"/>
					<polygon class="st5" points="392.6,132.7 392.7,132.7 392.6,132.7 					"/>
					<path class="st5" d="M395.5,129.3c0.2-0.2,0.2-0.4,0.2-0.6c-0.1,0.2-0.2,0.4-0.3,0.6C395.4,129.3,395.4,129.4,395.5,129.3z"/>
					<path class="st5" d="M393.6,130.7c0.2-0.1,0.3-0.1,0.5-0.2C393.9,130.5,393.5,130.6,393.6,130.7z"/>
					<path class="st5" d="M395.7,128.3C395.7,128.3,395.7,128.3,395.7,128.3C395.6,128.3,395.6,128.3,395.7,128.3z"/>
					<path class="st5" d="M395.7,128.3c0,0.1,0,0.3,0,0.4c0.1-0.2,0.1-0.3,0.2-0.4C395.8,128.3,395.8,128.3,395.7,128.3z"/>
					<path class="st5" d="M394,135.3c-0.3-0.3-0.1-1.1,0.6-1.3c0.2-0.7-1.1-1.2-2-1.2c0.1,0.1,0.2,0.2,0,0.9c0.3,0,1.3-0.8,1.2-0.1
						c-0.4,0.8-0.6,0.4-1,0.6c0.6,0-0.1,1.3,0.5,1.6l0.3-0.7C393.9,135,393.8,135.3,394,135.3z"/>
					<path class="st5" d="M393.4,131.8l0.1-0.2c-0.2,0.2-0.5,0.3-1,0.4c-0.1,0.4-0.1,0.6,0,0.7c0.3-0.3,0.6-0.6,0.8-1L393.4,131.8z"
						/>
					<path class="st5" d="M394.3,130.7c0.2,0.4,0,1,0.6,1c0.4-0.6,0-0.6,0.2-1.1C394.4,131.6,395,130.1,394.3,130.7
						c0.1-0.2,0.2-0.4,0.4-0.6c-0.2,0.1-0.4,0.3-0.5,0.4c0,0,0,0,0,0l0,0l0,0c0.1,0,0.1,0,0.1,0c0,0,0,0,0,0
						C394.2,130.6,394.2,130.6,394.3,130.7c-0.3,0.2-0.1,0-0.1-0.1c0,0,0,0,0-0.1l0,0l-0.6,1.1C393.8,131.4,394,131.2,394.3,130.7z"
						/>
					<path class="st5" d="M399.6,126.9c-0.1,0-0.1,0-0.1,0C399.5,126.9,399.6,127,399.6,126.9z"/>
					<path class="st5" d="M399.1,127.1c0-0.1-0.1-0.3,0.1-0.5c0.3-0.1,0.2,0.1,0.3,0.2c0-0.2,0.1-0.7-0.4-0.3l0,0.1
						c-0.4,0.3-1.2,0.6-1.2,0.5C398.3,127.2,398.6,127.2,399.1,127.1z"/>
					<path class="st5" d="M396.8,129.1l-0.5,0.9l0.6-0.2l-0.2-0.1C397.2,129.3,396.9,129.2,396.8,129.1z"/>
					<polygon class="st5" points="392.3,132.7 392.1,132.3 392.2,133.2 					"/>
					<polygon class="st5" points="391.5,133.7 391.2,133.4 391.2,133.9 					"/>
					<path class="st5" d="M327.2,171.3l-0.3,0.1C327,171.4,327.1,171.3,327.2,171.3z"/>
					<path class="st5" d="M329.5,171.2l0-0.2C329.4,171.1,329.4,171.2,329.5,171.2z"/>
					<path class="st5" d="M367,154.8c-0.6-0.1-1.3-0.3-1,0l0.3,0.3C366.6,154.9,366.8,154.8,367,154.8z"/>
					<path class="st5" d="M347.3,165.9c0.1,0,0.1,0.1,0.2,0.1c0.1-0.2,0.1-0.3,0.2-0.5C347.5,165.6,347.4,165.8,347.3,165.9z"/>
					<path class="st5" d="M347.4,167.7l-0.7-0.1C346.9,167.6,347.1,167.7,347.4,167.7z"/>
					<path class="st5" d="M314.8,171.7l-0.4,0.4C315,172.2,314.7,171.9,314.8,171.7z"/>
					<path class="st5" d="M382.3,143.7c-0.4,0.1-0.7,0.3-0.9,0.4C381.9,144,382.4,144,382.3,143.7z"/>
					<path class="st5" d="M327.8,166.6c-0.2,0.1-0.3,0.2-0.2,0.3C327.8,166.8,327.9,166.8,327.8,166.6z"/>
					<path class="st5" d="M380.6,144.8c0.1,0,0.1,0,0.2-0.1c0.2-0.2,0.3-0.5,0.6-0.7C381,144.2,380.7,144.4,380.6,144.8z"/>
					<path class="st5" d="M271.1,162.4C271.1,162.4,271.1,162.3,271.1,162.4C271,162.4,271.1,162.4,271.1,162.4z"/>
					<path class="st5" d="M260.5,153.9c0.1,0,0.3,0.1,0.5,0.2C261,154,260.8,153.9,260.5,153.9z"/>
					<path class="st5" d="M387.9,137.6C388,137.4,387.9,137.6,387.9,137.6L387.9,137.6z"/>
					<path class="st5" d="M390.1,137.8c0,0.1,0,0.2,0.1,0.2C390.1,137.9,390.1,137.8,390.1,137.8z"/>
					<path class="st5" d="M380.2,148.7L380.2,148.7C380.3,148.7,380.2,148.7,380.2,148.7z"/>
					<path class="st5" d="M388.3,137.4c-0.1,0-0.2,0.1-0.3,0.2C388,137.6,388.1,137.5,388.3,137.4z"/>
					<path class="st5" d="M388.1,137.3c0.1-0.1,0.1-0.1,0.2-0.2C388.3,137.1,388.2,137.1,388.1,137.3z"/>
					<path class="st5" d="M387.6,137.9c0.1-0.1,0.2-0.2,0.3-0.3c-0.1,0-0.1,0-0.1,0C387.8,137.7,387.7,137.8,387.6,137.9z"/>
					<path class="st5" d="M294.4,167.5C294.4,167.5,294.4,167.5,294.4,167.5C294,167.6,294.2,167.6,294.4,167.5z"/>
					<path class="st5" d="M362.5,162.3C362.5,162.3,362.5,162.3,362.5,162.3C362.5,162.3,362.5,162.3,362.5,162.3L362.5,162.3z"/>
					<path class="st5" d="M361.7,163c0.2-0.7,0.4-0.7,0.8-0.8l-0.9-1L361.7,163z"/>
					<path class="st5" d="M321.8,171.6l0.7,0.4c-0.9,0.6-1.6,0.4-0.8,1c0.1-0.7,0.8-0.7,1.5-0.7c0.7,0,1.5-0.1,1.5-0.8l0.5,0.3
						c-0.1,0-0.2,0.1-0.3,0.1c1,0.6,0.7-1,1.9-0.9c0.4,0.1,0.7,0.3,0.5,0.4l0.9-0.4c0.3,0,0.2,0.3-0.1,0.2l1.4-0.2l0,0
						c0.2-0.2,0.6-0.6,0.8-0.8c0.4,0.2-0.2,0.2-0.1,0.3l0.8-0.4c0.4,0.3-0.3,0.7-0.8,0.7c0.9,1.3,0.6-0.4,2.3,0.2l-0.7,0.3
						c0.6,0.7,1.1,0.4,2.1,0.8c-0.2-0.2-1.9-1-1-1.4c0.3,0.1,0.6,0.1,1-0.2c0.1,0.5,0.5,0.3,1.1,0.2l0,0.6c0.6-0.2,0.5-0.6,0.8-0.9
						c0.7,0,0.9,0.4,1.1,0.8c1.1-0.1-0.9-0.7,0.4-1c1,0.1,1.6-0.3,2.6-0.8c0.7,0.1,0,0.4,0.2,0.5l0.5-0.6c0.1,0,0.1,0.1,0.1,0.2
						c0.4-0.3-0.1-0.6,0.6-0.9c0-0.4,0.5-0.2,1,0c0.5,0.1,1.1,0.2,1.5-0.3c0.3,0.1,0,0.4,0.1,0.6c1.1-0.8,1-0.6,1.8-1.6l1,0.2
						c-0.8-0.3-0.1-1.1,0.5-1.7c-0.3-0.2-0.5-0.3-0.7-0.4l1-0.6c0.2,0.1,0.1,0.3,0,0.6c0.1-0.1,0.1-0.1,0.2-0.2
						c0.5,0.1,0.4,0.5,0.2,1c-0.2-0.1-0.3-0.2-0.5-0.3c-0.2,0.4-0.3,0.9-0.2,1.3c0.1-0.1,0.2-0.2,0.3-0.3c0,0.1-0.1,0.2,0,0.3
						c0.1,0.1,0.1-0.1,0.3-0.3l0.5,0.6l0-0.3l1.6,0c0.9-1,1.4-2.3,3-3.1c-0.2,0.6,0.2,0.8,0.4,1.4c-0.7-0.5-1.2,0.7-2.1,0.8
						c0.5-0.1,0.5,0.2,0.4,0.4l1.4-1.1c0.1,0.5,0.5,0.3,0.9,0.3c-0.6-0.8,0.9-1,1.4-1.5c0.2,0.3,0.1,0.7-0.7,0.9
						c1.1,0.4,0.7-1.5,1.7-1.2c-0.2,0.1-0.3,0.1-0.3,0.3c0.3-0.4,1.4-0.6,1.3-0.3l-0.2,0.1c1.3-0.3,3.7-1.5,3.5-2.4
						c0.1,0.1,0.3,1,0.3,1.2c0.3-1.2,0.6-2.4,0.9-3.5c0.1,0.7,1.6,2,0.8,2.8c0.3,0,0.7-0.1,1.2-0.6c-0.2,0-0.9-0.7-0.7-0.9
						c1.1,0.4,0.7,0.1,1.9,0.3c-0.4,0-0.6-1.2-0.1-1.4c0,0.2,0.6,1,0.5,1.2l0.6-1.6c-0.2,0.3,0.4,0.9,0.8,1c-0.2-0.1,1-0.5,1.2-0.8
						c-0.2,0-0.4,0-0.6,0c1.3-0.5,0.4-2.1,1.6-2.7c0,0.3,0.4,1.4,1.1,1.2c0-0.7-0.2-3.1,0.6-4.1l0.4,0.1l0.6-0.8
						c0,1-0.4,3.5-0.8,4.5c0.6,0,0.3,0.3,1-0.2c0.4,0.1-0.1,0.6-0.3,0.8c0.6-0.3,1.1-0.5,1.7-0.8c-0.4-0.5,0.8-1.4,0.4-1.8l-1.3,1.7
						c-0.4-0.5-0.1-2.2,1.1-2.9c0.4,0,0.5,1.1,0.6,1.3c0-0.3,0.8-1.1,1-1l-0.3,0.6c0.7-0.2,0.5-1.4,1.6-1.4c0.3-0.1,1.2,0.2,1-0.2
						c-0.8-0.3-2.3-2.2-2.4-2.9c0.1,0,1.7-0.3,2.2-0.2c0.8,0.2,0.3,1.6,0.9,1.7c-0.1-0.2,0-0.5,0-0.6c0.3-0.1,0.2,0.5,0.7,0.1
						c-0.3-0.6,1.2-0.8-0.1-0.7c0.4-0.5,0.7-0.3,1.2-0.8c-0.5-0.2-0.4-1.6,0-2.2c0.1,0.2,0.3,0.2,0.5,0.3c1.1-0.8,1.9-1,2.8-1.9
						c0.2,0,0.8-0.2,0.8,0.2c0.1-0.2,0-0.5,0.3-0.8c1-0.1-0.6,0.7,0.3,0.8c-0.2-0.3,0.4-1.1,0.6-1.6c-0.5-0.3-1,0.8-1.3,1.3
						c-0.6-0.6-0.4-1.9,0.3-3.1c0.6-0.8,0.7,0.1,0.8-0.1c1.5-1.3,0.1-2.2,1.7-2.9c0.8-0.1,0.8,0.7,1.2,0.9c-0.5,0.7-1.2,0.7-1.6,1.1
						l0.7-0.3c-0.1,0.3-0.4,0.8-0.7,0.9c0.7-0.1,2.5-2.2,3.8-3.1c0.1-0.3,0.2-0.8-0.1-0.8l-0.3,0.4c-0.6,0,0.2-1.1-0.4-0.8
						c0.2-0.7,0.3-1.5,1.1-2l0.6,0.3c-0.1-0.1-0.7,0.2-0.7,0.5c0-0.5,1.6-0.5,1.2-1.3c-0.2,0.1-0.5,0.1-0.7,0.2
						c0.2-0.7,0.2-1.7,0.8-2.2c-0.7-0.1-0.1,0.2-1,0.2c1,0.2-1.3,1.5-0.1,1.5c-1-0.1-0.9,0.5-2,0.6c0.2,0.1,0.5,0.1-0.1,0.5
						c0,0.1,0,0.2,0,0.2c0,0,0,0,0,0l0,0c0,0,0,0,0,0c0.2-0.1,0.3-0.1,0.5,0c0.1,0.6-0.6,1.3-0.7,1.8c-0.3,0.2-0.1-0.3-0.4-0.3
						l-0.1,0.6c-0.4-0.3-1.3,0.2-0.8-0.6l-0.6,0.6c-0.5,0.2-1.1,0.6-1.2,1c-0.3,0.2-0.3,1-0.4,0.6l-0.7,1.1l-0.1-0.1
						c-1,0.8-1.5,2.3-3.1,2.7c-0.2,0.4-0.5,0.8-1.1,1.1l-0.4-0.2c-0.3,0.5-1.5,0.7-1.5,1.2c-0.6-0.2-1.1,0.2-1.6,0.6
						c-0.5,0.5-1.1,1-1.5,1.3l0.3,0.4c-0.6,0.4-1,0.9-1.5,1.5l0.3,0.3c-0.4,0.7-1.7,0.8-2.6,1.4c0-0.2,0.2-0.3,0.5-0.3
						c-1.7-0.1-2,2.2-3.4,2.2c-0.2,0.3-0.4,0.4-0.6,0.4c0,0,0,0,0.1-0.1c0,0-0.1,0-0.1,0.1c-0.2,0-0.3,0-0.5,0c0.2,0,0.3,0,0.4,0
						c-0.2,0.1-0.5,0.4-0.7,0.6l-0.4-0.3c0,0,0,0-0.1,0.1c-0.4,0-0.1,0.3,0.2,0.6c-0.1,0.2-0.2,0.3-0.3,0.5
						c-0.6-0.5-0.7,0.7-1.4,0.1c0,0.5-1.4,1.1-1.2,1.9c-0.1-0.1-0.2-0.1,0-0.2c-0.4,0.1-0.8,0.2-1,0.6l-0.4-0.5
						c-0.1,0.4-0.3,0.8-0.4,1.1c-0.6-0.1-0.9-0.2-0.7-0.9c-0.8,1.2-0.8,0.7-1.5,1.8l-0.1-0.4c-0.3,0.2-0.7,0.9-1,0.7
						c-0.5-0.1-1.5,0.2-2.7,0.6c-1.2,0.4-2.4,1-3.6,0.9c0.8,1-1.1-0.2-0.9,0.7c-0.2-0.2-0.5-0.3-0.3-0.6c-1,0.6-1.7,0.1-2.2,1
						c-0.2-0.2,0.1-0.5,0-0.6c-0.1,0.1-0.3,0.3-0.4,0.2c-0.2-0.1,0.1-0.3,0.2-0.4c-1.1,0.4-0.9,1.2-0.8,2c-0.7-0.2-0.9-0.1-1.2,0.5
						c-0.3-0.2-0.7-0.4,0-0.6c-0.4,0.1-2.5,0.2-2.3,0.8c-0.2-0.1-0.6,0.1-0.6,0.2c-0.9,0.2-1,0.1-1.8,0.4l0.3,0
						c-0.2,0.8-0.7,0.3-1.4,0.5l0-0.1c-1.7-0.3-0.7,0.4-2.3,0l0.2,0.5c0,1-1.5-0.4-2.4,0.2l0.4,0.2c-0.5,0.5-1.6-1.2-2.1-1.3
						c-0.1-0.1,0.2-0.2,0.3-0.2c-1.4-0.5-0.1,0.6-1.1,0.9c-0.2-0.3,0.1-0.9-0.5-0.9c-0.4-0.2-1.8,1.3-2.8,0.7c0.2,0.2,0.4,0.5,0,0.7
						c-0.7,0.2-2-0.9-2.6,0c-0.1-0.1-0.1-0.1-0.1-0.2c-0.5,0.2-1.7,0.4-2.1,0.9c-0.3-0.8-1.1-0.6-1.9-0.3c-0.8,0.2-1.5,0.4-1.5-0.3
						l-1.7,0.1l0-0.2c-1.1-0.1-1.4,0.3-1.8,0.6c-0.2-0.1-0.1-0.2,0-0.3c-1.6-0.3-1.7-0.3-3.1,0.4l-0.1-0.5c-0.4,0.3-2.2-0.9-3.8-0.4
						c0-0.1,0.1-0.1,0.2-0.2c-1.8,0.4-3.9-1.8-4.8-0.1l-1.2,0.3c1.5,0.3-0.3,0.8,0.3,1.1c-0.6,0-1.4-0.7-0.7-0.7l0.1,0.1
						c0.4-0.9-1.8-0.6-1.7-1.2c-1.4-0.2-2.8-0.5-4.2-0.9c-1.4-0.3-2.7-0.8-4-1.1l0.2,0.8l-0.9-0.2c-0.2-0.2-0.2-0.6,0.4-0.5
						c-0.3-0.5-1.2,0.1-1.2,0.3c-1.2-0.5,0.7-0.7,0.3-0.8l-0.6-0.1l0.1,0.1c-0.5,0.2-0.6,0.5-1.4,0.3c-0.5-0.3-0.2-0.5-0.4-0.6
						c0-0.1,0-0.1-0.3-0.1l-1.1-0.3l0.3,0.7c-0.6,0.2-1.1-0.3-0.7,0.5c-0.6-1.2-4.3-1.4-4.7-1.8c-0.8,0.2-1.5,0-2.4-0.3
						c0.2,0.2,0.1,0.8-0.6,0.6c0.6-1.2-1.2-0.9-1.6-2c0.4,0.8-2.2-0.5-1.6,0.6c-0.6-0.3,0.1-0.5-0.3-0.9c-1.6,0-3.2-1.3-5.1-1.7
						c-0.1,0.2,0.1,0.5-0.3,0.6l-0.7-1.2c-0.4,0-0.7,0.9-1.1,0c0,0.2,0.1,0.4-0.1,0.4c-1.7-1-3.5-1.4-5.4-2.1
						c-1.8-0.6-3.7-1.3-5.2-2.7c0.4,0.5,0,0.4-0.3,0.3c0.2,0.2-0.2,0.4-0.2,0.6l-1.3-1.2c-0.5,0.5-1.6-0.6-2-0.1l0.5,0.1
						c-0.9,0.4,0.3,1.9-0.2,2.7c1-0.5,1.4,1.9,3,1.2c0.2,0.3-0.3,0.2-0.3,0.5c0.4-0.3,0.8-0.2,1.4,0.2l-0.1,0.1
						c1.9,0.6,2.6,1.3,4.6,2.3l0-0.5c0.4,0.2,0.5,0.4,0.7,0.6c0.8-0.5-1.3-0.5-0.5-1.1c0.3,1.2,3.2,1.1,3.3,2.3
						c0.7,0.2,0-0.6,0.7-0.3l0.1,0.3l0.3-0.3c0.4,0.2,0.6,0.6,0.5,0.9c-0.1-0.1-0.3,0-0.5-0.1c0.5,0.5,1.7,0.5,1.9,0.6l-0.6-0.4
						c2,0.4,4.3,1.5,6.4,1.5l-0.1-0.3c1.6,0,1.1,0.6,2.7,0.8l-0.1,0c0.4-0.1,0.8-0.1,1.3,0c-0.5,0.1,0.6,0.7,0,0.8
						c1.7,0,0.9-0.1,2.1-0.6l0.1,0.4c0.4-0.2,0.5-0.4,1.3-0.3c-0.7,0.1,0.4,0.7-0.5,0.9c1.5,1.2,2.7-0.2,3.2,1.1
						c1-0.8-1.3-0.9-0.8-1c-0.3-0.4,0.8-0.6,1.3-0.4c0.5,0.1,0.6,1.5,2,1.8c-0.1,0-0.2,0-0.3,0c0.5,0.4,1.1-0.1,1.6,0.4
						c0.5-0.5,0.8,0.2,1.1-0.6l-1.3-0.1c0.8-0.1,1.6-0.8,2.7-0.2c-0.1,0.1-0.5,0.3-0.8,0.3c0.3,0.3,0.7,0,1,0.3
						c-0.3,0.8-1.6-0.1-2.4,0.3c0.3,0.4,1.6-0.3,1,0.5c0.8-1,1.3,0.4,2.4-0.2l-0.1,0.5c0.2,0,0.5-0.2,0.8-0.1l-0.6,0.5
						c0.8-0.4,1.4,0.8,2.2,0.6c-1.5-0.3-0.2-0.6-0.8-1.1c2-0.3,0.9,1.4,3,1.5c-0.3,0-1-0.4-0.5-0.6c0.4,0.2,0.9,0.4,1.1,0.7
						c1.4,0.1-0.1-0.5,0.5-0.7c0.4,0.6,0.7-0.1,1.4-0.2l-0.1,0.5c1.5,0.5,0.6-0.9,1.9-0.4l-0.7,0.6c0.3,0,0.5,0,0.8-0.1l-0.2,0.5
						c0.9-0.3,1.1-0.2,1.9,0.1c-0.1-0.4,0.2-0.9,0.9-0.8c0.5,0.3-0.3,0.4,0.7,0.5c-0.3,0.3-0.5,0.6-0.9,0.1
						c-0.1,0.2-0.3,0.3-0.3,0.4c0.5,0.4,1.3,0.2,1.7,0.3c-0.1,0-0.3-0.1-0.4-0.2l1.5-0.5c0.2,0.2,0,0.3-0.2,0.5c0.3,0,0.5-0.2,1-0.2
						c-0.1,0.4-0.2,0.8-0.8,0.9c0.5-0.1,1-0.2,1.4-0.3c0.1,0.2,0.7,0.5,0.5,0.6c0.8,0.3,2-0.6,3-0.3c0.1-0.1,0.2-0.1,0.4-0.2
						c1,0.1,1.8,0.7,3,0.2l0.6,0.7c0.9-0.2-0.9-0.9,0.6-1.1c1.1-0.2,0.4,0.6,0.8,0.8c0.5-0.3,1.4-1.1,2.4-0.5
						C322.3,171.6,322.1,171.5,321.8,171.6z M332.8,170.7c-0.2,0.1-0.6,0.5-0.8,0.2C332.2,170.3,332.4,170.5,332.8,170.7z
						 M349.1,166.3c-0.1,0.2-0.4,0.2-0.7,0.1C348.6,166.3,348.8,166.3,349.1,166.3z M386,140.1L386,140.1
						C385.6,140.3,385.7,140.3,386,140.1z M386.9,139.6c0-0.1,0-0.2-0.1-0.2c0,0.1-0.1,0.3-0.3,0.4
						C386.6,139.9,386.7,139.9,386.9,139.6z M292.1,163.7l0.2,0.2C291.8,163.9,291.9,163.8,292.1,163.7z"/>
					<path class="st5" d="M347.4,167.5c-0.1-0.1-0.1-0.1-0.2-0.2C347.2,167.4,347.2,167.4,347.4,167.5z"/>
					<path class="st5" d="M314.9,171.6L314.9,171.6C314.8,171.6,314.8,171.7,314.9,171.6L314.9,171.6z"/>
					<path class="st5" d="M378.3,152.6c-0.2,0.1-0.4,0.1-0.5,0C377.9,152.8,378,152.8,378.3,152.6z"/>
					<path class="st5" d="M389.7,135.3l-0.3,0.5c0.2-0.2,0.3-0.2,0.5-0.3C389.7,135.5,389.5,135.5,389.7,135.3z"/>
					<path class="st5" d="M395.4,133.1c0-0.1,0.1-0.2,0.1-0.3l-0.2-0.1C395.1,133,395,133.4,395.4,133.1z"/>
					<path class="st5" d="M391.2,135.9c0.3,0.2,0.5-0.2,0.7-0.5c0,0,0,0,0,0.1C391.5,135,391.4,135.5,391.2,135.9z"/>
					<path class="st5" d="M392,135.3c0.1-0.1,0.1-0.2,0.2-0.3C392.1,134.8,392.1,135.1,392,135.3z"/>
					<path class="st5" d="M387.5,138.5c0.2-0.1-0.3-0.4-0.1-0.4C387.2,137.6,386.9,139.5,387.5,138.5z"/>
					<polygon class="st5" points="392.5,136.5 392,136.3 392.1,136.8 					"/>
					<path class="st5" d="M389.9,138.9l0.6-0.4c-0.1,0,0-0.1,0-0.3C390.2,138.5,389.8,138.8,389.9,138.9z"/>
					<path class="st5" d="M390.5,138.2c0.2-0.2,0.3-0.3,0.3-0.5C390.7,137.8,390.6,138,390.5,138.2z"/>
					<polygon class="st5" points="392,137.4 391.8,137.5 391.4,137.8 					"/>
					<path class="st5" d="M384.6,144.1l-0.5,0.6c0.1,0.2,0.3,0.1,0.4-0.1C384.6,144.4,384.8,144.2,384.6,144.1z"/>
					<path class="st5" d="M387.2,143.5c-0.2,0.1-0.3,0-0.5,0l0.4,0.5L387.2,143.5z"/>
					<path class="st5" d="M385.7,145.2c0.1,0.2-0.5,1.1,0.2,0.4C385.8,145.4,386.3,144.8,385.7,145.2z"/>
					<polygon class="st5" points="376.3,152 376.4,151.9 375.8,151.1 					"/>
					<path class="st5" d="M369,159.7c0.9-0.3-0.1-0.7,0.7-0.8c0.1-0.3-0.7,0.1-0.6-0.2C368.8,159.2,368.5,159.2,369,159.7z"/>
					<path class="st5" d="M369.1,158.7c0.1-0.1,0.1-0.2,0.2-0.3C369.2,158.5,369.1,158.6,369.1,158.7z"/>
					<polygon class="st5" points="258.8,152.6 258.3,152.2 258.5,152.7 					"/>
					<path class="st5" d="M257.4,152.9l0.1-0.7l-0.5,0.4C257.2,152.7,257.4,152.7,257.4,152.9z"/>
					<path class="st5" d="M334.6,171.8l0-0.2c-0.1-0.2-0.3-0.2-0.5-0.2L334.6,171.8z"/>
					<polygon class="st5" points="326.5,172 326.6,172 326.3,171.4 					"/>
					<path class="st5" d="M319.7,172.8c0.3,0,0.6-0.1,0.9-0.1C320,172.8,319.6,172.1,319.7,172.8z"/>
				</g>
			</g>
		</g>
	</g>
</g>
<g>
	<g>
		<g>
			<path class="st6" d="M64.3,170.8c7.8,2.5,15.8,4.4,23.8,5.9c4.1,0.6,8.3,1.3,12.4,1.9c14.8,2.1,29.7,2.5,44.6,2.5
				c27.7,0,55.4-2.4,83.1-4.5c0.9-0.2,1.3-0.8,1.2-1.7c-0.6-1.5-1.6-2.7-3-3.5c-2.3-1.8-4.6-3.5-7.1-5.1c-1.3-1.1-2.7-1.7-4.3-1.7
				c-27,1.5-53.9,3-80.9,2c-12.3-0.5-24.6-1.4-36.8-3.2c-6.1-0.8-12.1-1.8-18-3.1c-7.5-1.8-14.9-3.9-22.1-6.5
				c-0.9-0.2-1.6,0.1-1.8,1c-0.1,1.7,0.4,3.2,1.3,4.6c1.3,2.7,2.8,5.3,4.4,7.8C61.7,168.9,62.8,170,64.3,170.8z"/>
			<path class="st6" d="M55.2,163.7c7.7,2.4,15.6,4.4,23.6,5.9c4.1,0.7,8.3,1.3,12.4,2c14.7,2.1,29.6,2.6,44.5,2.7
				c27.7,0.1,55.3-2.2,82.9-4.3c1-0.2,1.4-0.7,1.2-1.7c-0.7-1.6-1.8-2.8-3.3-3.7c-2.4-1.9-4.9-3.7-7.5-5.3c-1.3-1.1-2.8-1.8-4.5-1.9
				c-27.1,1.5-54.3,3-81.4,1.9c-12.4-0.5-24.8-1.6-37.1-3.4c-6.1-0.8-12.1-1.9-18.2-3.2c-7.5-1.8-14.9-4-22.2-6.6
				c-1-0.2-1.6,0.2-1.7,1.2c0.2,1.8,0.8,3.4,2,4.9c1.7,2.8,3.6,5.5,5.6,8.1C52.3,161.8,53.5,163,55.2,163.7z"/>
			<path class="st6" d="M58.1,155.7c7.9,2.5,15.9,4.4,24.1,5.7c4.2,0.6,8.3,1.2,12.5,1.9c14.9,2,29.9,2.4,44.9,2.3
				c27.9-0.2,55.6-2.6,83.4-4.9c1.1-0.1,2.7-1,2.7-2.3c0-0.9-1.7-3.3-2.7-3.2c-27.5,2.3-55,4.8-82.6,5c-12.8,0.1-25.5-0.3-38.2-1.6
				c-6.3-0.5-12.5-1.3-18.7-2.5c-8.3-1.1-16.3-3.1-24.2-6c-1.1-0.3-2.9,0.4-3.2,1.6C55.9,152.7,57.1,155.4,58.1,155.7z"/>
			<path class="st6" d="M62.8,159.6c7.8,2.3,15.6,4.3,23.6,5.8c4.1,0.7,8.2,1.3,12.4,2c14.7,2.1,29.6,2.6,44.4,2.7
				c27.6,0.1,55.2-2.1,82.7-4.2c1.2,0.2,1.7-0.3,1.5-1.5c-1-2.2-2.4-4.1-4.3-5.7c-3.1-3.3-6.3-6.4-9.7-9.4c-1.6-1.8-3.5-3.2-5.8-4.1
				c-26.3,1.4-52.6,2.8-79,1.8c-12-0.5-24-1.4-35.9-3.1c-5.9-0.7-11.8-1.8-17.6-3.1c-7.3-1.9-14.5-4-21.6-6.5
				c-1.1-0.6-1.7-0.3-1.9,0.9c0.1,2.4,0.7,4.6,1.9,6.7c1.7,4.1,3.5,8.1,5.5,12C59.8,156.1,61.1,158,62.8,159.6z"/>
			<path class="st6" d="M65.1,154.8c4.2,1.3,8.4,2.4,12.7,3.4c8.2,1.8,16.4,3.2,24.7,4.3c12.8,1.5,25.6,2.2,38.4,2.3
				c29.8,0.2,59.5-2.7,89.2-5.2c0.7-0.2,1.3-0.7,1.7-1.3c0.4-0.7,0.3-1.4-0.2-2c-0.7-1.5-2.1-3.4-3.9-3.2c-24.9,2.2-49.9,4.8-75,5.4
				c-12.6,0.3-25.2,0.2-37.7-0.8c-4.2-0.4-8.4-0.8-12.5-1.2c-8.2-1-16.4-2.4-24.5-4.1c0.3,0.1,0.6,0.1,0.8,0.2c-4-1.2-8-2.4-12-3.6
				c-1.1-0.3-2.9-0.2-3.4,1.2c-0.1,0.9,0,1.7,0.4,2.5C64.1,153.4,64.5,154.1,65.1,154.8z"/>
			<path class="st6" d="M52,164.1c7.9,2.3,15.8,4.1,23.9,5.5c4.2,0.6,8.3,1.3,12.5,1.9c14.9,2,29.9,2.4,44.9,2.3
				c27.9-0.2,55.6-2.6,83.4-4.9c1.1-0.1,2.4-1.6,2.2-2.8c-0.2-1.1-2.4-2.9-3.6-2.8c-27.6,2.2-55.1,4.5-82.8,4.6
				c-12.8,0-25.5-0.5-38.2-1.8c-6.3-0.6-12.5-1.4-18.7-2.6c-8.1-1.4-16.1-3.3-24-5.7c-1.2-0.3-2.8,0.9-2.9,2.2
				C48.8,161.2,50.8,163.8,52,164.1z"/>
			<path class="st6" d="M59.2,172.8c7.8,2.4,15.7,4.3,23.7,5.8c4.2,0.6,8.3,1.3,12.5,1.9c14.8,2.1,29.8,2.6,44.8,2.6
				c27.4,0,54.8-2.2,82.1-4.3c0.9,0.1,1.5-0.2,2-0.9c0.4-0.8,0.3-1.5-0.3-2.2c-1.2-1.1-2.6-2.1-4-2.8c-1.4-0.9-2.9-1.5-4.5-2
				c-17.3,1.1-34.6,2.1-52,2.7c0.4,0,0.8,0,1.3,0c-15.3,0.3-30.6,0.3-45.9-0.7c-6.3-0.3-12.6-0.9-18.9-1.6c-8.3-1-16.5-2.3-24.7-4
				c0.4,0.1,0.9,0.2,1.3,0.3c-4.4-1.1-8.7-2.2-13.1-3.3c0.4,0.1,0.9,0.3,1.3,0.4c-4-1.3-8-2.5-12-3.8c-0.9,0-1.4,0.5-1.7,1.3
				c-0.1,1.3,0.3,2.4,1.2,3.4c1.2,1.8,2.5,3.6,4,5.2C57,171.9,58,172.6,59.2,172.8z"/>
			<path class="st6" d="M68.7,159.6c7.7,2.4,15.6,4.3,23.6,5.9c4.1,0.6,8.3,1.3,12.4,1.9c14.7,2.1,29.6,2.6,44.5,2.6
				c27.7,0,55.2-2.3,82.8-4.4c3.8-0.3-0.4-5.2-1.1-6.2c-2.1-2.7-4.4-5.3-6.8-7.8c-1.1-1.6-2.6-2.7-4.3-3.4
				c-26.4,1.8-52.8,3.8-79.3,3.4c-12.1-0.1-24.2-0.8-36.2-2.2c-6-0.6-11.9-1.5-17.8-2.7c-7.3-1.6-14.6-3.6-21.6-6.1
				c-3.5-1.1-1.8,4.4-1.5,5.7c0.8,3,1.8,6,2.9,9C66.6,157,67.4,158.5,68.7,159.6z"/>
			<path class="st6" d="M54.6,159.3c7.7,1.8,15.5,3.5,23.2,5.1c4.2,0.6,8.3,1.3,12.5,1.9c14.9,2.1,29.9,2.6,44.9,2.5
				c27.9,0,55.7-2.5,83.4-4.7c1.3-0.1,2.7-1.2,2.3-2.7c-0.5-0.9-1.2-1.7-2.1-2.4c-0.8-0.7-1.7-1.3-2.7-1.7
				c-27.5,2.1-55,4.5-82.6,4.3c-12.7,0-25.4-0.6-38.1-2.1c-6.3-0.6-12.5-1.5-18.6-2.7c-7.6-1.7-15.1-3.4-22.6-5.2
				c-1.3-0.3-3,0.3-3,1.9c0.2,1.1,0.7,2.1,1.3,3C53.1,157.7,53.8,158.6,54.6,159.3z"/>
			<path class="st6" d="M59.7,153.3c7.7,3,15.7,5.1,23.8,6.5c4.1,0.6,8.3,1.3,12.4,1.9c14.7,2.1,29.6,2.6,44.5,2.6
				c27.7,0,55.2-2.3,82.8-4.5c3.4-0.3,0.1-4.4-0.6-5.3c-1.8-2.1-3.6-4.1-5.6-5.9c-1-1.2-2.2-2-3.7-2.3c-26.8,1.9-53.7,4-80.6,3.6
				c-12.4-0.2-24.6-0.8-36.9-2.3c-6.1-0.6-12.2-1.6-18.2-2.8c-7.9-1.3-15.6-3.8-22.8-7.3c-0.9-0.3-1.5,0-1.9,0.9
				c-0.3,1.5,0,2.9,0.8,4.2c1,2.5,2.1,4.9,3.4,7.3C57.5,151.5,58.4,152.6,59.7,153.3z"/>
			<path class="st6" d="M67.6,165.4c7.8,2.4,15.7,4.4,23.7,5.9c4.1,0.6,8.3,1.3,12.4,1.9c14.7,2.1,29.7,2.6,44.5,2.6
				c27.7,0,55.3-2.3,82.9-4.4c4-0.3-1.4-5.7-1.8-6.2c-2.5-2.6-5.1-5.1-7.8-7.5c-1.3-1.5-2.9-2.5-4.8-3.1
				c-26.5,1.6-52.9,3.1-79.5,2.4c-12.1-0.3-24.1-1.2-36.2-2.8c-6-0.7-11.9-1.7-17.8-2.9c-7.3-1.7-14.5-3.8-21.6-6.3
				c-3.7-1.2-1.3,5.3-1,6.2c1.1,3.3,2.4,6.4,3.9,9.6C65.2,162.7,66.2,164.2,67.6,165.4z"/>
			<path class="st6" d="M51.6,167c7.8,2.7,15.8,4.7,24,6.2c4.2,0.7,8.3,1.3,12.5,2c14.9,2.1,30,2.7,45,2.7c28,0.1,55.9-2.2,83.7-4.4
				c1.3-0.1,2.4-1.8,1.9-3c-0.6-0.8-1.4-1.5-2.2-2c-0.8-0.6-1.7-1-2.7-1.2c-27.7,2-55.5,4.1-83.4,3.6c-12.9-0.2-25.6-1-38.4-2.5
				c-6.3-0.7-12.5-1.6-18.7-2.9c-8.1-1.4-16-3.6-23.6-6.6c-1.5-0.5-3,0.7-2.8,2.3c0.5,1.2,1.2,2.2,2,3.2
				C49.6,165.4,50.5,166.3,51.6,167z"/>
		</g>
	</g>
</g>
<g>
	<g>
		<path class="st7" d="M34.2,57.9c9,7.9,20.4,11.4,31.9,14c10.8,2.5,22,4.9,33.1,2.8c11.5-2.1,21.4-9.5,30.8-16.2
			c11.9-8.4,23.3-17.4,34.6-26.5c-0.2,0.1-3.8-0.8-4.8,0.1c-8.6,7-17.3,13.8-26.1,20.4c-8.5,6.3-17.2,13-26.7,17.8
			c-13.1,6.6-27.1,3.2-40.5-0.2c-10-2.5-19.6-6-27.4-12.9C38.1,56.5,34.2,57.9,34.2,57.9L34.2,57.9z"/>
	</g>
</g>
<g>
	<g>
		<g>
			<path class="st8" d="M299.8,90.3c21.3,0.9,41.9-1.4,61.3-4.8l-8.3-1.8c-4.3-1-8.7-2.1-12.9-3.2c-2.1-0.5-4.3-1.2-6.4-1.8
				l-6.3-1.9l-1.4-18.4l-0.2-3c-2,0.2-4,0.2-6,0.3l-6,0.3c-4,0-8-0.1-12-0.2l2.7,3.1c2.3,2.5,4.7,5.1,7.2,7.6
				c1.3,1.3,2.5,2.5,3.8,3.7c1.3,1.2,2.6,2.4,3.9,3.6l-3.7,3.5c-1.3,1.2-2.5,2.4-3.9,3.4c-2.6,2.2-5.3,4.4-8.1,6.5L299.8,90.3z"/>
			<path class="st9" d="M324.4,40.2l0.3,3.7l2.2,28.8l0.3,4c21.1-1.7,41.6-5.8,61.4-10.2c7.7-1.7,15.3-3.4,22.9-5
				c17.2-3.6,34.2-6.7,51.1-7.9l-0.3-4l-1.9-28.8l-0.2-3.7c-19.7,1.3-38.4,4.8-56.3,8.6c-7.9,1.7-15.5,3.4-23.1,5
				C361.1,35.1,342.5,38.8,324.4,40.2z"/>
			<path class="st8" d="M469.4,49.9c1.1-1.3,2.3-2.6,3.5-3.9c1.2-1.3,2.4-2.6,3.6-3.8c2.5-2.4,5.1-4.9,7.7-7.3l3.3-2.9
				c-4.4-0.1-8.9-0.3-13.3-0.4l-6.6,0.2c-2.2,0.1-4.4,0.1-6.6,0.3l0.2,3l1.2,18.4l-5.3,2.9c-1.7,1-3.5,1.9-5.2,3l-5.1,3.2
				c-1.7,1.1-3.3,2.1-5,3.2l-6.4,4.3c17.3-3,34-4.5,50-3.6l-2.6-3.3c-2.1-2.3-4.2-4.6-6.4-6.9c-1.1-1.2-2.3-2.2-3.4-3.3L469.4,49.9z
				"/>
			<g>
				<path class="st10" d="M454.7,54.2c-1.8,0.1-3.6,0.4-5.4,0.6l-5.4,0.7c-1.8,0.2-3.6,0.5-5.4,0.8l-5.4,0.9l1.6,9.5l0.6,3.5
					l6.6-4.4c2.2-1.5,4.4-2.8,6.7-4.2c4.5-2.9,9.1-5.4,13.8-8L454.7,54.2z"/>
				<path class="st10" d="M327.1,76.7c5.5,1.7,11.2,3.4,16.8,4.8c2.8,0.7,5.7,1.5,8.5,2.1l8.6,1.9l-0.6-3.5l-1.7-9.5l-5.7,1
					c-1.9,0.3-3.8,0.7-5.7,0.9l-5.8,0.8c-1.9,0.2-3.9,0.6-5.8,0.7L327.1,76.7z"/>
			</g>
		</g>
	</g>
</g>
<g>
	<path class="st11" d="M-150.5,2.5"/>
</g>
</svg>
