<?xml version="1.0" encoding="utf-8"?>
<!-- Generator: Adobe Illustrator 21.0.2, SVG Export Plug-In . SVG Version: 6.00 Build 0)  -->
<svg version="1.1" id="Layer_1" xmlns="http://www.w3.org/2000/svg" xmlns:xlink="http://www.w3.org/1999/xlink" x="0px" y="0px"
	 viewBox="0 0 216 216" style="enable-background:new 0 0 216 216;" xml:space="preserve">
<style type="text/css">
	.st0{fill:#8DC63F;stroke:#7AC143;stroke-width:1.0089;stroke-miterlimit:10;}
	.st1{fill:#8DC63F;stroke:#7AC143;stroke-width:0.4202;stroke-miterlimit:10;}
	.st2{fill:#8DC63F;stroke:#7AC143;stroke-width:0.3399;stroke-miterlimit:10;}
</style>
<path class="st0" d="M77.3,145.8L93.2,24.3c0,0,0.9-23.6,26.3-22.2s18.7,28.1,18.7,28.1l-15.8,121.5l-7.8,59.2L69.5,205L77.3,145.8z
	"/>
<path class="st1" d="M77.7,142.1c0,0-35.1,4.8-36.5-12.9S42.9,73,42.9,73s-4.1-21,13.9-20C74.9,54,68,73.1,68,73.1l-4,44.6
	c0,0,0.5,5.7,4.2,6.2c3.7,0.5,11.7,0.9,11.7,0.9L77.7,142.1z"/>
<path class="st2" d="M129.3,83.4c0,0,26.4,11.1,31.2-2.5s10.4-44.3,10.4-44.3s7.6-15.6-6.7-18.5s-12.9,13.4-12.9,13.4l-6.2,35.7
	c0,0-1.6,4.4-4.6,4c-3-0.4-9.4-1.7-9.4-1.7L129.3,83.4z"/>
</svg>
