<?xml version="1.0" encoding="utf-8"?>
<!-- Generator: Adobe Illustrator 21.0.2, SVG Export Plug-In . SVG Version: 6.00 Build 0)  -->
<svg version="1.1" id="Layer_1" xmlns="http://www.w3.org/2000/svg" xmlns:xlink="http://www.w3.org/1999/xlink" x="0px" y="0px"
	 viewBox="0 0 584.5 341.5" style="enable-background:new 0 0 584.5 341.5;" xml:space="preserve">
<style type="text/css">
	.st0{fill:#6D6E71;stroke:#231F20;stroke-width:2.1683;stroke-miterlimit:10;}
	.st1{fill:#E6E7E8;}
	.st2{fill:#414042;stroke:#231F20;stroke-width:2.1683;stroke-miterlimit:10;}
	.st3{fill:#FFFFFF;stroke:#231F20;stroke-width:0.5421;stroke-miterlimit:10;}
	.st4{fill:#231F20;stroke:#231F20;stroke-width:2.1683;stroke-miterlimit:10;}
	.st5{fill:none;stroke:#231F20;stroke-width:0.5421;stroke-miterlimit:10;}
	.st6{fill:#231F20;stroke:#231F20;stroke-width:0.5421;stroke-miterlimit:10;}
</style>
<g>
	<path class="st0" d="M496.3,259.4H125.9c-9.4,0-17-7.6-17-17v-197c0-9.4,7.6-17,17-17h370.4c9.4,0,17,7.6,17,17v197
		C513.3,251.8,505.6,259.4,496.3,259.4z"/>
	<rect x="118.9" y="39.9" class="st1" width="382.5" height="208.4"/>
	<path class="st2" d="M276.2,259.4c0,0-11.5,55.4-46,55.4h138.4c0,0-41.8-12.9-41.8-55.4H276.2z"/>
</g>
<g>
	<path class="st3" d="M526.2,290.8h-40c-2,0-3.6-1.6-3.6-3.6v-67c0-2,1.6-3.6,3.6-3.6h40c2,0,3.6,1.6,3.6,3.6v67
		C529.7,289.3,528.1,290.8,526.2,290.8z"/>
	<rect x="486.9" y="221.5" class="st4" width="38.7" height="58.5"/>
	<path class="st5" d="M512.7,287.1h-12.9c-0.7,0-1.3-0.6-1.3-1.3l0,0c0-0.7,0.6-1.3,1.3-1.3h12.9c0.7,0,1.3,0.6,1.3,1.3l0,0
		C514,286.5,513.4,287.1,512.7,287.1z"/>
</g>
<g>
	<path class="st3" d="M161.8,323.4H55.9c-4,0-7.3-3.3-7.3-7.3V180.7c0-4,3.3-7.3,7.3-7.3h105.9c4,0,7.3,3.3,7.3,7.3V316
		C169.1,320.1,165.9,323.4,161.8,323.4z"/>
	<rect x="53.8" y="178.9" class="st6" width="110.1" height="130.1"/>
	<circle class="st3" cx="108.9" cy="315.5" r="3.2"/>
	<path class="st3" d="M110,317.1h-2.2c-0.3,0-0.5-0.2-0.5-0.5v-2.2c0-0.3,0.2-0.5,0.5-0.5h2.2c0.3,0,0.5,0.2,0.5,0.5v2.2
		C110.5,316.9,110.2,317.1,110,317.1z"/>
</g>
</svg>
