<?xml version="1.0" encoding="utf-8"?>
<!-- Generator: Adobe Illustrator 21.0.2, SVG Export Plug-In . SVG Version: 6.00 Build 0)  -->
<svg version="1.1" id="Layer_1" xmlns="http://www.w3.org/2000/svg" xmlns:xlink="http://www.w3.org/1999/xlink" x="0px" y="0px"
	 viewBox="0 0 380.5 242" style="enable-background:new 0 0 380.5 242;" xml:space="preserve">
<style type="text/css">
	.st0{fill:#6D6E71;stroke:#231F20;stroke-width:1.6355;stroke-miterlimit:10;}
	.st1{fill:#E6E7E8;}
	.st2{fill:#414042;stroke:#231F20;stroke-width:1.6355;stroke-miterlimit:10;}
	.st3{fill:#FFFFFF;stroke:#231F20;stroke-width:0.4089;stroke-miterlimit:10;}
	.st4{fill:#231F20;stroke:#231F20;stroke-width:1.6355;stroke-miterlimit:10;}
	.st5{fill:none;stroke:#231F20;stroke-width:0.4089;stroke-miterlimit:10;}
	.st6{fill:#231F20;stroke:#231F20;stroke-width:0.4089;stroke-miterlimit:10;}
</style>
<g>
	<path class="st0" d="M346.8,185.2H67.4c-7.1,0-12.8-5.7-12.8-12.8V23.8c0-7.1,5.7-12.8,12.8-12.8h279.4c7.1,0,12.8,5.7,12.8,12.8
		v148.6C359.6,179.4,353.8,185.2,346.8,185.2z"/>
	<rect x="62.1" y="19.6" class="st1" width="288.5" height="157.2"/>
	<path class="st2" d="M180.8,185.2c0,0-8.7,41.8-34.7,41.8h104.4c0,0-31.6-9.8-31.6-41.8H180.8z"/>
</g>
<g>
	<path class="st3" d="M369.3,208.9h-30.1c-1.5,0-2.7-1.2-2.7-2.7v-50.5c0-1.5,1.2-2.7,2.7-2.7h30.1c1.5,0,2.7,1.2,2.7,2.7v50.5
		C372,207.7,370.8,208.9,369.3,208.9z"/>
	<rect x="339.7" y="156.6" class="st4" width="29.2" height="44.1"/>
	<path class="st5" d="M359.2,206h-9.7c-0.5,0-1-0.4-1-1l0,0c0-0.5,0.4-1,1-1h9.7c0.5,0,1,0.4,1,1l0,0
		C360.1,205.6,359.7,206,359.2,206z"/>
</g>
<g>
	<path class="st3" d="M94.5,233.4H14.6c-3,0-5.5-2.5-5.5-5.5V125.8c0-3,2.5-5.5,5.5-5.5h79.9c3,0,5.5,2.5,5.5,5.5v102.1
		C100,230.9,97.6,233.4,94.5,233.4z"/>
	<rect x="13" y="124.4" class="st6" width="83.1" height="98.1"/>
	<circle class="st3" cx="54.6" cy="227.5" r="2.4"/>
	<path class="st3" d="M55.4,228.7h-1.7c-0.2,0-0.4-0.2-0.4-0.4v-1.7c0-0.2,0.2-0.4,0.4-0.4h1.7c0.2,0,0.4,0.2,0.4,0.4v1.7
		C55.8,228.5,55.6,228.7,55.4,228.7z"/>
</g>
</svg>
