<?xml version="1.0" encoding="utf-8"?>
<!-- Generator: Adobe Illustrator 21.0.2, SVG Export Plug-In . SVG Version: 6.00 Build 0)  -->
<svg version="1.1" id="Layer_1" xmlns="http://www.w3.org/2000/svg" xmlns:xlink="http://www.w3.org/1999/xlink" x="0px" y="0px"
	 viewBox="0 0 288 144" style="enable-background:new 0 0 288 144;" xml:space="preserve">
<style type="text/css">
	.st0{fill:#9B72B2;}
	.st1{fill:#FEE825;}
	.st2{fill:#E70885;}
	.st3{fill:#62BB46;}
	.st4{fill:#353292;}
	.st5{fill:#FFFFFF;}
	.st6{fill:none;stroke:#000000;stroke-width:0.3384;stroke-miterlimit:10;}
	.st7{fill:none;stroke:#000000;stroke-width:0.3384;stroke-miterlimit:10;stroke-dasharray:1.366,1.366;}
	.st8{fill:none;stroke:#000000;stroke-width:0.3384;stroke-miterlimit:10;stroke-dasharray:1.3223,1.3223;}
	.st9{fill:none;stroke:#000000;stroke-width:0.3384;stroke-miterlimit:10;stroke-dasharray:1.3406,1.3406;}
	.st10{fill:#182A16;}
	.st11{opacity:0.7;fill:#FFFFFF;stroke:#000000;stroke-width:0.6314;stroke-miterlimit:10;}
	.st12{opacity:0.7;fill:#FFFFFF;stroke:#000000;stroke-width:0.6347;stroke-miterlimit:10;}
	.st13{fill:none;stroke:#000000;stroke-width:0.6768;stroke-miterlimit:10;}
	.st14{fill:#FFFFFF;stroke:#000000;stroke-width:0.6768;stroke-miterlimit:10;}
	.st15{fill:#FFFFFF;stroke:#000000;stroke-width:0.7791;stroke-miterlimit:10;}
	.st16{fill:#FFFFFF;stroke:#000000;stroke-width:0.5897;stroke-miterlimit:10;}
	.st17{fill:none;stroke:#9B72B2;stroke-width:0.3384;stroke-linecap:round;stroke-miterlimit:10;}
	.st18{fill:#E76D24;stroke:#F89A1F;stroke-width:1.3754;stroke-miterlimit:10;}
	.st19{fill:#F89A1F;}
	.st20{fill:none;}
	.st21{fill:none;stroke:#FEE825;stroke-width:0.6768;stroke-miterlimit:10;}
</style>
<polygon points="212.8,62.5 219.2,62.5 219.2,60 220.8,60 220.8,65.8 219.1,65.8 219.1,63.6 212.8,63.7 "/>
<polygon points="188.4,63.2 182,63.2 182,60.7 180.4,60.7 180.4,66.6 182,66.6 182.1,64.3 188.4,64.4 "/>
<ellipse transform="matrix(0.9571 -0.2898 0.2898 0.9571 -22.4923 20.6052)" class="st0" cx="58.3" cy="86.2" rx="43.4" ry="43.4"/>
<circle class="st1" cx="111.2" cy="33.4" r="9.5"/>
<ellipse transform="matrix(0.4078 -0.9131 0.9131 0.4078 3.7152 207.2429)" class="st2" cx="161.6" cy="100.8" rx="15.6" ry="15.6"/>
<circle class="st3" cx="200.4" cy="39.2" r="28.2"/>
<ellipse transform="matrix(0.8741 -0.4858 0.4858 0.8741 -15.0311 141.2587)" class="st1" cx="264.9" cy="99.6" rx="15.2" ry="15.2"/>
<circle class="st4" cx="250" cy="32.1" r="5.4"/>
<path d="M126.7,45.6"/>
<ellipse class="st5" cx="208.1" cy="33.4" rx="4" ry="10.1"/>
<ellipse class="st5" cx="184.4" cy="35.5" rx="3.2" ry="7.5"/>
<g>
	<g>
		<path class="st6" d="M199.2,11c0,0-0.1,0.2-0.2,0.7"/>
		<path class="st7" d="M198.7,13c-1.5,7-5.8,31.6,3.9,53"/>
		<path class="st6" d="M202.9,66.6c0.1,0.2,0.2,0.4,0.3,0.6"/>
	</g>
</g>
<g>
	<g>
		<path class="st6" d="M208.7,12.2c0,0,0.2,0.2,0.5,0.4"/>
		<path class="st8" d="M210.3,13.4c5.2,4,20.5,18.3,7.1,47.5"/>
		<path class="st6" d="M217.1,61.5c-0.1,0.2-0.2,0.4-0.3,0.6"/>
	</g>
</g>
<g>
	<g>
		<path class="st6" d="M188.2,13.5c0,0-0.2,0.2-0.5,0.5"/>
		<path class="st9" d="M186.8,14.9c-5.6,5.3-24.2,25.4-0.2,48.5"/>
		<path class="st6" d="M187.1,63.8c0.2,0.2,0.3,0.3,0.5,0.5"/>
	</g>
</g>
<path class="st10" d="M194.7,46.3c0,0,1.8-7.5,5.9,0s7.5,10.4,7.5,10.4s-10.7,3.5-17.8,0.9C190.3,57.6,192.1,57.4,194.7,46.3z"/>
<path class="st11" d="M49.2,95.2L23,103.1c-4,1.2-8.2-1.1-9.4-5.1L6.8,75.6c-1.2-4,1.1-8.2,5.1-9.4L38,58.2c4-1.2,8.2,1.1,9.4,5.1
	l6.8,22.5C55.5,89.7,53.2,94,49.2,95.2z"/>
<path class="st12" d="M96.4,80.9l-26.5,8c-4,1.2-8.3-1.1-9.5-5.1l-6.8-22.4c-1.2-4,1.1-8.3,5.1-9.5l26.5-8c4-1.2,8.3,1.1,9.5,5.1
	l6.8,22.4C102.7,75.4,100.4,79.7,96.4,80.9z"/>
<path class="st13" d="M49.6,70.2c0,0,1.6-4.5,6.1-1.9"/>
<path class="st13" d="M34.5,104.6c0,0,8.4,9,21.9,10.2c3,0.3,6.3,0.1,9.8-0.6c19.3-3.9,23-26.2,23-26.2"/>
<path class="st14" d="M56,125.5l-0.7-10.8c0,0,4.9,0.6,10.1-0.3l2.6,8.7c0,0-4.2,1.6-6,1.3C62.1,124.4,58.9,126.1,56,125.5z"/>
<line class="st13" x1="60.5" y1="116.1" x2="62.1" y2="122.8"/>
<ellipse transform="matrix(0.9571 -0.2898 0.2898 0.9571 -22.0665 13.9137)" class="st15" cx="35.9" cy="81.5" rx="12.6" ry="16.7"/>
<ellipse transform="matrix(0.9571 -0.2898 0.2898 0.9571 -17.1944 24.2338)" class="st15" cx="73.2" cy="70.2" rx="12.6" ry="16.7"/>
<ellipse transform="matrix(0.9571 -0.2898 0.2898 0.9571 -24.2704 15.5458)" cx="40.4" cy="89.7" rx="6.8" ry="6.8"/>
<ellipse transform="matrix(0.9571 -0.2898 0.2898 0.9571 -19.9243 24.7517)" cx="73.6" cy="79.6" rx="6.8" ry="6.8"/>
<path class="st16" d="M160.9,94.2l-7.2-9.4c0,0-2.6,5.1,0.7,10.4C157.7,100.7,160.9,94.2,160.9,94.2z"/>
<path class="st16" d="M166.9,96.9l11.8-0.9c0,0-2,5.3-8.2,6.5S166.9,96.9,166.9,96.9z"/>
<path class="st16" d="M148.3,110.5c0,0,7.1-9,11.8-6.4c4.7,2.7,3.6,14.6,3.6,14.6s-3.4-9.6-5.8-10.7
	C155.6,107,148.3,110.5,148.3,110.5z"/>
<path d="M158.9,96.7c0,0-1.9-3.4-4.2-1.5C154.7,95.2,155.8,98.7,158.9,96.7z"/>
<path d="M166.4,100.1c0,0,3.8-0.8,3.9,2.1C170.3,102.2,167,103.7,166.4,100.1z"/>
<ellipse class="st5" cx="111.5" cy="30.3" rx="2.6" ry="4.1"/>
<ellipse class="st0" cx="111.5" cy="32.4" rx="1.5" ry="2"/>
<path class="st17" d="M107.6,34.7c0,0,0.9,2.6,3.9,2.6s3.3-2.6,3.3-2.6"/>
<polygon class="st0" points="110.1,37.1 110.4,38.7 111.3,37.3 "/>
<ellipse transform="matrix(0.8741 -0.4858 0.4858 0.8741 -10.8725 139.9126)" class="st5" cx="264.4" cy="90.9" rx="3.5" ry="6.2"/>
<ellipse transform="matrix(0.8741 -0.4858 0.4858 0.8741 -13.4833 137.1709)" class="st5" cx="257.8" cy="94.6" rx="3.5" ry="6.2"/>
<path class="st18" d="M254.6,107.5c0,0,24.1,17.1,22.9-12.2L254.6,107.5z"/>
<path class="st19" d="M254.5,107.7c0,0,17.1,4.5,22.8-12.4L254.5,107.7z"/>
<line class="st20" x1="263.7" y1="99.8" x2="264.3" y2="99.4"/>
<line class="st20" x1="265.1" y1="98.9" x2="265.8" y2="98.6"/>
<ellipse transform="matrix(0.8741 -0.4858 0.4858 0.8741 -14.81 138.4554)" cx="259.6" cy="97.8" rx="2.1" ry="2.6"/>
<ellipse transform="matrix(0.8741 -0.4858 0.4858 0.8741 -12.2098 141.186)" cx="266.2" cy="94.1" rx="2.1" ry="2.6"/>
<path class="st21" d="M257.6,30.9c0,0.6-13.3,6.6-14.7,5.5s1-3.1,1-3.1s5.9-3.7,11.4-4.6c0,0,3.2-0.2,2.9,1.6
	c-0.3,1.8-14.1,6.8-14.6,6.3"/>
<path class="st4" d="M244.6,32c0,0,0.1,1.5,0.2,1.6s6.5-1.8,6.5-1.8l3.6-1.9c0,0-0.7-1.5-1.6-2C252.5,27.3,244.6,32,244.6,32z"/>
</svg>
