<?xml version="1.0" encoding="utf-8"?>
<!-- Generator: Adobe Illustrator 21.0.2, SVG Export Plug-In . SVG Version: 6.00 Build 0)  -->
<svg version="1.1" id="Layer_1" xmlns="http://www.w3.org/2000/svg" xmlns:xlink="http://www.w3.org/1999/xlink" x="0px" y="0px"
	 viewBox="0 0 1000 1000" style="enable-background:new 0 0 1000 1000;" xml:space="preserve">
<style type="text/css">
	.st0{fill:#FEE825;}
	.st1{fill:#BCBEC0;}
	.st2{fill:none;}
	.st3{font-family:'MarkerFelt-Wide';}
	.st4{font-size:191.7069px;}
	.st5{fill:#391020;}
	.st6{fill:#F06CA9;}
	.st7{fill:none;stroke:#69154C;stroke-width:6.6874;stroke-linecap:round;stroke-miterlimit:10;}
	.st8{fill:#443B97;}
</style>
<g>
	<circle class="st0" cx="514.5" cy="517.4" r="361.1"/>
	<path class="st1" d="M887.8,516.1L146.2,627.9c-15.6,2.4-30.4-8.5-32.7-24.1L88.1,435.4c-2.4-15.6,8.5-30.4,24.1-32.7l741.6-111.8
		c15.6-2.4,30.4,8.5,32.7,24.1l25.4,168.4C914.3,499,903.4,513.7,887.8,516.1z"/>
	
		<rect x="167.1" y="361.5" transform="matrix(0.9888 -0.1491 0.1491 0.9888 -63.1514 83.2461)" class="st2" width="713" height="202.5"/>
	<text transform="matrix(0.9888 -0.1491 0.1491 0.9888 179.5771 572.3799)" class="st3 st4">Genmoji</text>
	<path class="st5" d="M255.2,643.5L804,561.3c0,0-37.1,223.8-242.7,252.2S255.2,643.5,255.2,643.5z"/>
	<path class="st6" d="M430.4,800.2c0,0,37.3,16,78.7,15.2c49.8-1,97.4,36.6,81.9,75c-28.3,70.1,115.7,123.6,146.8,56.2
		c0,0,58.2-78.2-52.4-154.9S430.4,800.2,430.4,800.2z"/>
	<path class="st7" d="M443.4,791.6c0,0,151.4-23.8,214.2,41.6c68,70.9,21.5,100.8,23.9,100.8"/>
	<path class="st8" d="M175.4,393.2l-64.6-63.5h64.6v-186l56.1,67.3l71.2-79.1h85.1V46.7l77.2,69.3l168.2-31.7l21.8,47.6L804,173.4
		l-54.1,9.9l54.1,43.5l-10.6,17.8l65.3-17.8l-57,71.9c0,0-187.7-168.9-366.5-135.3C261.2,196.2,175.4,393.2,175.4,393.2z"/>
</g>
</svg>
