<?xml version="1.0" encoding="utf-8"?>
<!-- Generator: Adobe Illustrator 21.0.2, SVG Export Plug-In . SVG Version: 6.00 Build 0)  -->
<svg version="1.1" id="Layer_1" xmlns="http://www.w3.org/2000/svg" xmlns:xlink="http://www.w3.org/1999/xlink" x="0px" y="0px"
	 viewBox="0 0 216 216" style="enable-background:new 0 0 216 216;" xml:space="preserve">
<style type="text/css">
	.st0{fill:#EC008C;}
</style>
<path class="st0" d="M101.4,189.6c0,0,100.3-78.7,61-114s-61,22.8-61,22.8v0.8c0,0-21.7-58.1-61-22.8s61,114,61,114"/>
<path class="st0" d="M178.8,73c0,0,41.1-14.3,32.3-30.1c-8.8-15.7-22.2,0.6-22.2,0.6l-0.1,0.3c0,0-0.6-21.2-17.2-14.1
	s7.1,43.5,7.1,43.5"/>
<path class="st0" d="M164.9,176.7c0,0,10.7-14.2,4.1-17.5s-7.4,5.3-7.4,5.3l0,0.1c0,0-5-7-9-0.9s12.3,13.1,12.3,13.1"/>
<path class="st0" d="M22.8,81c0,0,14.5-19.2,5.6-23.8s-10,7.1-10,7.1l0,0.1c0,0-6.8-9.5-12.2-1.2s16.7,17.8,16.7,17.8"/>
</svg>
