<?xml version="1.0" encoding="utf-8"?>
<!-- Generator: Adobe Illustrator 21.0.2, SVG Export Plug-In . SVG Version: 6.00 Build 0)  -->
<svg version="1.1" id="Layer_1" xmlns="http://www.w3.org/2000/svg" xmlns:xlink="http://www.w3.org/1999/xlink" x="0px" y="0px"
	 viewBox="0 0 216 216" style="enable-background:new 0 0 216 216;" xml:space="preserve">
<style type="text/css">
	.st0{fill:#E8C51E;}
	.st1{fill:#3C2415;}
	.st2{fill:#FFFFFF;}
	.st3{fill:none;stroke:#3C2415;stroke-width:1.4422;stroke-linecap:round;stroke-miterlimit:10;}
	.st4{fill:#F1F2F2;}
</style>
<path class="st0" d="M37.2,43.5l14.5,11.3c1.8,1.4,4-0.9,2.7-2.6L43.2,37.6c-1.4-1.9,1.2-4.2,2.8-2.5l13,13.1c1.6,1.6,4.1-0.4,3-2.3
	l-9.2-16c-1.2-2,1.7-4,3.1-2.1l11.2,14.6c1.3,1.8,4.1,0.2,3.2-1.9l-7.1-17c-0.9-2.2,2.2-3.7,3.4-1.7l9.2,16c1.1,1.9,4.1,0.7,3.5-1.4
	l-4.9-17.8c-0.6-2.3,2.7-3.4,3.6-1.2l7.1,17c0.9,2,3.9,1.2,3.6-1l-2.6-18.3c-0.3-2.3,3.1-3,3.7-0.8l4.9,17.8
	c0.6,2.1,3.7,1.7,3.7-0.5l-0.2-18.4c0-2.4,3.4-2.6,3.8-0.3l2.6,18.3c0.3,2.2,3.5,2.2,3.8,0l2.1-18.3c0.3-2.4,3.7-2.2,3.8,0.2
	l0.2,18.4c0,2.2,3.2,2.6,3.7,0.4l4.5-17.9c0.6-2.3,4-1.7,3.7,0.7L124.2,33c-0.3,2.2,2.8,3,3.6,0.9l6.7-17.2c0.9-2.2,4.2-1.1,3.6,1.1
	l-4.5,17.9c-0.5,2.2,2.4,3.3,3.5,1.4L146,21c1.1-2.1,4.3-0.6,3.4,1.6l-6.7,17.2c-0.8,2.1,2,3.6,3.3,1.8l10.8-14.9
	c1.4-1.9,4.3-0.1,3.2,2l-8.9,16.2c-1.1,1.9,1.5,3.8,3,2.2l12.7-13.4c1.6-1.7,4.3,0.5,2.9,2.4L159,51c-1.3,1.8,1,4,2.7,2.6L176,41.9
	c1.8-1.5,4.2,1,2.6,2.8L165.9,58c-1.5,1.6,0.5,4.1,2.4,2.9l15.7-9.7c2-1.3,4,1.6,2.2,3.1l-14.3,11.7c-1.7,1.4,0,4.1,2,3.2l16.8-7.7
	c2.2-1,3.8,2.1,1.8,3.3l-15.7,9.7c-1.9,1.2-0.6,4.1,1.6,3.4l17.6-5.5c2.3-0.7,3.5,2.5,1.3,3.5l-16.8,7.7c-2,0.9-1.1,4,1.1,3.6
	l18.2-3.2c2.3-0.4,3.1,3,0.9,3.7L183,93.2c-2.1,0.7-1.6,3.8,0.6,3.7l18.4-0.8c2.4-0.1,2.7,3.4,0.4,3.8l-18.2,3.2
	c-2.2,0.4-2,3.6,0.2,3.8l18.4,1.5c2.4,0.2,2.3,3.7-0.1,3.8l-18.4,0.8c-2.2,0.1-2.5,3.3-0.3,3.7l18,3.9c2.3,0.5,1.8,3.9-0.6,3.7
	l-18.4-1.6c-2.2-0.2-2.9,2.9-0.8,3.7l17.4,6.2c2.2,0.8,1.3,4.1-1,3.6l-18-3.9c-2.2-0.5-3.2,2.5-1.3,3.5l16.5,8.3
	c2.1,1.1,0.7,4.3-1.5,3.5l-17.4-6.2c-2.1-0.7-3.5,2.1-1.7,3.3l15.3,10.4c2,1.3,0.2,4.3-1.9,3.3l-16.4-8.3c-2-1-3.8,1.6-2.1,3.1
	l13.8,12.2c1.8,1.6-0.4,4.3-2.3,3L166.3,158c-1.8-1.2-3.9,1.1-2.5,2.8l12.1,13.9c1.6,1.8-0.9,4.2-2.7,2.7l-13.8-12.2
	c-1.7-1.5-4.1,0.6-2.8,2.5l10.2,15.3c1.3,2-1.4,4.1-3,2.3l-12.1-13.9c-1.5-1.7-4.1,0.1-3.1,2.1l8.2,16.5c1.1,2.1-2,3.9-3.3,1.9
	l-10.2-15.3c-1.2-1.8-4.1-0.4-3.4,1.7l6,17.4c0.8,2.2-2.4,3.6-3.5,1.5l-8.2-16.5c-1-2-4-0.9-3.5,1.2l3.7,18.1c0.5,2.3-2.9,3.2-3.6,1
	l-6-17.4c-0.7-2.1-3.8-1.5-3.7,0.8l1.4,18.4c0.2,2.4-3.3,2.8-3.7,0.5l-3.7-18.1c-0.4-2.2-3.6-1.9-3.7,0.3l-1,18.4
	c-0.1,2.4-3.6,2.4-3.8,0l-1.4-18.4c-0.2-2.2-3.4-2.4-3.7-0.2l-3.3,18.1c-0.4,2.3-3.9,1.9-3.8-0.4l1-18.4c0.1-2.2-3-2.8-3.7-0.7
	l-5.6,17.6c-0.7,2.3-4.1,1.4-3.7-0.9l3.3-18.1c0.4-2.2-2.6-3.2-3.6-1.1l-7.8,16.7c-1,2.1-4.2,0.9-3.5-1.4l5.6-17.6
	c0.7-2.1-2.2-3.5-3.4-1.6l-9.9,15.6c-1.3,2-4.3,0.3-3.3-1.8l7.8-16.7c0.9-2-1.8-3.7-3.2-2l-11.8,14.2c-1.5,1.8-4.3-0.2-3.1-2.2
	l9.9-15.6c1.2-1.9-1.3-3.9-2.9-2.4l-13.5,12.6c-1.7,1.6-4.3-0.8-2.7-2.6l11.8-14.2c1.4-1.7-0.8-4-2.6-2.7l-15,10.7
	c-1.9,1.4-4.1-1.3-2.4-2.9l13.5-12.6c1.6-1.5-0.2-4.1-2.2-3.1l-16.2,8.7c-2.1,1.1-3.9-1.8-2-3.2l15-10.7c1.8-1.3,0.3-4.1-1.8-3.3
	l-17.2,6.6c-2.2,0.8-3.7-2.3-1.6-3.4l16.2-8.7c2-1,0.8-4-1.3-3.5l-17.9,4.3c-2.3,0.6-3.3-2.8-1.1-3.6l17.2-6.6
	c2.1-0.8,1.3-3.9-0.9-3.6l-18.3,2c-2.4,0.3-2.9-3.2-0.6-3.7l17.9-4.3c2.2-0.5,1.8-3.7-0.4-3.7l-18.4-0.4c-2.4,0-2.5-3.5-0.2-3.8
	l18.3-2c2.2-0.2,2.3-3.4,0.1-3.8l-18.2-2.7c-2.3-0.3-2-3.8,0.3-3.8l18.4,0.4c2.2,0,2.7-3.1,0.6-3.7l-17.7-5c-2.3-0.6-1.5-4,0.8-3.7
	L32.7,89c2.2,0.3,3.1-2.7,1-3.6l-17-7.3c-2.2-0.9-1-4.2,1.3-3.6l17.7,5c2.1,0.6,3.4-2.3,1.5-3.5l-15.9-9.4c-2-1.2-0.5-4.3,1.7-3.4
	L40,70.7c2,0.9,3.7-1.9,1.9-3.2L27.4,56.1c-1.9-1.5,0.1-4.3,2.1-3.1l15.9,9.4c1.9,1.1,3.9-1.4,2.3-3l-13-13.1
	C33,44.7,35.3,42.1,37.2,43.5z"/>
<polygon class="st1" points="95.5,108.3 120.5,108.3 107.3,126.5 "/>
<polygon class="st2" points="93.7,133.2 95.5,138.5 97.8,133.2 "/>
<polygon class="st2" points="117.6,133.2 119.5,138.5 121.7,133.2 "/>
<path class="st3" d="M107.3,125.1c0,0-11,18.8-23.1,0"/>
<path class="st3" d="M107.4,125.1c0,0,11,18.8,23.1,0"/>
<ellipse class="st4" cx="130.5" cy="82.2" rx="12.3" ry="22.3"/>
<ellipse class="st4" cx="87.3" cy="82.2" rx="12.3" ry="22.3"/>
<ellipse class="st1" cx="93.4" cy="83.8" rx="6.2" ry="9"/>
<ellipse class="st1" cx="136.7" cy="83.8" rx="6.2" ry="9"/>
</svg>
