<?xml version="1.0" encoding="utf-8"?>
<!-- Generator: Adobe Illustrator 21.0.2, SVG Export Plug-In . SVG Version: 6.00 Build 0)  -->
<svg version="1.1" id="Layer_1" xmlns="http://www.w3.org/2000/svg" xmlns:xlink="http://www.w3.org/1999/xlink" x="0px" y="0px"
	 viewBox="0 0 216 216" style="enable-background:new 0 0 216 216;" xml:space="preserve">
<style type="text/css">
	.st0{fill:#BE1E2D;}
	.st1{fill:#FFFFFF;stroke:#231F20;stroke-width:1.0865;stroke-miterlimit:10;}
	.st2{fill:#231F20;stroke:#231F20;stroke-width:1.0865;stroke-miterlimit:10;}
	.st3{fill:none;stroke:#231F20;stroke-width:1.0865;stroke-miterlimit:10;}
</style>
<circle class="st0" cx="107.2" cy="108.2" r="96.2"/>
<path class="st1" d="M16.2,25.8l71,41.9c0,0-30.1,45.2-51.6,0S16.2,25.8,16.2,25.8z"/>
<path class="st1" d="M197.2,25.8l-71,41.9c0,0,30.1,45.2,51.6,0S197.2,25.8,197.2,25.8z"/>
<path class="st1" d="M61.8,178v-37.6c0,0,41.9-51.6,87.6,0V178c0,0-20.6-30.3-42.3-30.3S61.8,178,61.8,178z"/>
<path class="st2" d="M40.6,76.7c0,0,18.9-11.9,32.5,5.7C73.1,82.3,54.7,97.5,40.6,76.7z"/>
<path class="st2" d="M172.9,76.7c0,0-18.9-11.9-32.5,5.7C140.4,82.3,158.7,97.5,172.9,76.7z"/>
<path class="st3" d="M61.8,154.1c0,0,22.1-21.5,43.8-21.5s43.8,23.8,43.8,23.8"/>
</svg>
