<?xml version="1.0" encoding="utf-8"?>
<!-- Generator: Adobe Illustrator 21.0.2, SVG Export Plug-In . SVG Version: 6.00 Build 0)  -->
<svg version="1.1" id="Layer_1" xmlns="http://www.w3.org/2000/svg" xmlns:xlink="http://www.w3.org/1999/xlink" x="0px" y="0px"
	 viewBox="0 0 216 216" style="enable-background:new 0 0 216 216;" xml:space="preserve">
<style type="text/css">
	.st0{fill:#EA6B6A;}
	.st1{fill:#FFFFFF;}
	.st2{fill:#A5A3A4;}
	.st3{fill:none;stroke:#231F20;stroke-miterlimit:10;}
	.st4{fill:#EF4136;}
	.st5{fill:#231F20;}
</style>
<circle class="st0" cx="109" cy="103.4" r="88.5"/>
<path class="st1" d="M79.6,146c0,0,39-30.4,50.8-10.9c11.8,19.5-9.5,11.8-17.2,10.9S79.6,146,79.6,146z"/>
<path class="st2" d="M119.9,138.4l28.5,53.5c0,0-3.8,4.7,1.9,5.3c5.7,0.5,6.3-4.2,6.3-4.2s1.1-3.6-3.7-2.9l-31.1-51.6H119.9z"/>
<path class="st3" d="M79.6,146c0,0,48.7-13.3,53.9-4.1"/>
<circle class="st4" cx="61.7" cy="58.3" r="4.5"/>
<circle class="st4" cx="124.4" cy="30.8" r="4.5"/>
<circle class="st4" cx="28.8" cy="119.6" r="4.5"/>
<circle class="st4" cx="61.7" cy="118.1" r="4.5"/>
<circle class="st4" cx="188.1" cy="113.6" r="4.5"/>
<circle class="st4" cx="84.1" cy="122.6" r="4.5"/>
<circle class="st4" cx="146" cy="60.8" r="4.5"/>
<circle class="st4" cx="41.4" cy="80.9" r="4.5"/>
<circle class="st4" cx="84.1" cy="24.8" r="4.5"/>
<ellipse transform="matrix(0.6068 -0.7949 0.7949 0.6068 -95.9854 99.6109)" class="st4" cx="52.7" cy="146.8" rx="4.5" ry="4.5"/>
<ellipse transform="matrix(0.9913 -0.1315 0.1315 0.9913 -21.1418 13.8087)" class="st4" cx="94" cy="167" rx="4.5" ry="4.5"/>
<ellipse transform="matrix(0.9913 -0.1315 0.1315 0.9913 -22.0518 18.8375)" class="st4" cx="131.6" cy="176.4" rx="4.5" ry="4.5"/>
<ellipse transform="matrix(0.9913 -0.1315 0.1315 0.9913 -18.7173 20.8252)" class="st4" cx="148.3" cy="152.1" rx="4.5" ry="4.5"/>
<ellipse transform="matrix(0.9913 -0.1315 0.1315 0.9913 -14.9973 21.103)" class="st4" cx="152.3" cy="124.1" rx="4.5" ry="4.5"/>
<ellipse transform="matrix(0.9913 -0.1315 0.1315 0.9913 -7.0681 23.6214)" class="st4" cx="175.3" cy="65.3" rx="4.5" ry="4.5"/>
<path class="st5" d="M68.3,76.9c0,0,11.7-20.6,21.9-14.1S87.1,58.4,68.3,76.9z"/>
<path class="st5" d="M146.9,76.9c0,0-11.7-20.6-21.9-14.1S128.1,58.4,146.9,76.9z"/>
<path class="st1" d="M61.3,91.5h35C96.3,91.5,109.1,43.5,61.3,91.5z"/>
<path class="st1" d="M152.6,91.5h-35C117.6,91.5,104.8,43.5,152.6,91.5z"/>
<path class="st5" d="M116.5,85.8c0,0,7.7-6.6,8.1,5.8h-7C117.6,91.5,116.5,87.5,116.5,85.8z"/>
<path class="st5" d="M97.5,85.8c0,0-7.7-6.6-8.1,5.8h7C96.4,91.5,97.5,87.5,97.5,85.8z"/>
</svg>
