<?xml version="1.0" encoding="utf-8"?>
<!-- Generator: Adobe Illustrator 21.0.2, SVG Export Plug-In . SVG Version: 6.00 Build 0)  -->
<svg version="1.1" id="Layer_1" xmlns="http://www.w3.org/2000/svg" xmlns:xlink="http://www.w3.org/1999/xlink" x="0px" y="0px"
	 viewBox="0 0 398 216" style="enable-background:new 0 0 398 216;" xml:space="preserve">
<style type="text/css">
	.st0{fill:#D3DE26;}
	.st1{fill:none;stroke:#D3DE26;stroke-width:0.705;stroke-miterlimit:10;}
	.st2{fill:#231F20;}
	.st3{fill:#941A47;}
	.st4{fill:#CE519D;}
	.st5{fill:#FFFFFF;}
</style>
<circle class="st0" cx="66.4" cy="97.4" r="53.7"/>
<ellipse class="st1" cx="243.4" cy="99.4" rx="17.9" ry="33"/>
<circle class="st2" cx="243.4" cy="120" r="12.5"/>
<ellipse class="st1" cx="280.5" cy="99.4" rx="17.9" ry="33"/>
<circle class="st2" cx="280.5" cy="120" r="12.5"/>
<path class="st3" d="M327.9,137.8l-15.2-74.7c-1.9-9.5,5.3-18.3,15-18.3h30.4c9.7,0,16.9,8.9,15,18.3l-15.2,74.7
	C354.5,154.2,331.2,154.2,327.9,137.8z"/>
<path class="st4" d="M134.5,87.5h76.6c0,0-1.5,45.3-38.3,45.3S134.5,87.5,134.5,87.5z"/>
<path class="st5" d="M134.5,90.3c2,1.3,33.5,19.8,76.6,0H134.5z"/>
<path class="st5" d="M134.5,90.3c0,0,9.6,38.6,38.3,37.6s38.3-37.6,38.3-37.6s-19.4,31.4-38.3,32.3C154,123.7,134.5,90.3,134.5,90.3
	z"/>
</svg>
