<?xml version="1.0" encoding="utf-8"?>
<!-- Generator: Adobe Illustrator 21.0.2, SVG Export Plug-In . SVG Version: 6.00 Build 0)  -->
<svg version="1.1" id="Layer_1" xmlns="http://www.w3.org/2000/svg" xmlns:xlink="http://www.w3.org/1999/xlink" x="0px" y="0px"
	 viewBox="0 0 216 216" style="enable-background:new 0 0 216 216;" xml:space="preserve">
<style type="text/css">
	.st0{fill:#F9A242;}
	.st1{fill:#231F20;}
	.st2{fill:none;stroke:#231F20;stroke-width:1.0788;stroke-miterlimit:10;}
	.st3{fill:#FFFFFF;}
	.st4{fill:#47ACE1;}
</style>
<circle class="st0" cx="107.2" cy="108.6" r="95.1"/>
<path class="st1" d="M65.7,144c0,0,9.2-29.1,30.8-27.5c21.6,1.7,30.4,37.4,30.4,37.4v23.3c0,0-15.8-32.5-61.2-14.1V144z"/>
<path class="st2" d="M47.5,64.8c0,0,24.5-16.6,25.8,8.5c0,0-7.2-5.3-12.9-3"/>
<path class="st2" d="M140.3,80c0,0-15-25.5-26.9-3.5c0,0,8.8-1.7,13,2.8"/>
<path class="st3" d="M65.7,163.2c0,0,41.2-19.1,61.2,14.1v-19.6c0,0-25.4-24.7-61.2-9.1V163.2z"/>
<path class="st4" d="M74.4,74.3c0,0-7.5,7.8-1.8,10.1C78.3,86.7,74.4,74.3,74.4,74.3z"/>
<path class="st4" d="M112.8,83.2c0,0-5.3,9.5,0.8,10.2C119.7,94.1,112.8,83.2,112.8,83.2z"/>
<path class="st4" d="M121,109.8c0,0-1.6,16.2,7.2,13.5C137.1,120.6,121,109.8,121,109.8z"/>
<path class="st4" d="M139.4,143.5c0,0-11.3,20.6,3.2,18.9C157.2,160.7,139.4,143.5,139.4,143.5z"/>
<path class="st4" d="M67.4,94.1c0,0-13.1,12.6-2.6,15.6C75.3,112.7,67.4,94.1,67.4,94.1z"/>
<path class="st4" d="M56.8,127.4c0,0-12,13.7-1.2,15.8S56.8,127.4,56.8,127.4z"/>
</svg>
